REM DIRINDEX 1\2,1\3,1\4,1\5
REM DIRNAME "folder01","folder02","folder03","folder04","folder05"
TITLE ""
FILE "1Q_t_0449-0458.mp3" MP3
  TRACK 01 AUDIO
    TITLE "3:cjc172_2275"
    INDEX 01 00:00:00
  TRACK 02 AUDIO
    TITLE "0:"
    INDEX 01 00:01:23
  TRACK 03 AUDIO
    TITLE "4:cjc172_2276"
    INDEX 01 00:01:41
  TRACK 04 AUDIO
    TITLE "0:"
    INDEX 01 00:03:34
  TRACK 05 AUDIO
    TITLE "5:cjc172_2277"
    INDEX 01 00:03:48
  TRACK 06 AUDIO
    TITLE "0:"
    INDEX 01 00:08:73
  TRACK 07 AUDIO
    TITLE "3:cjc172_2278"
    INDEX 01 00:09:48
  TRACK 08 AUDIO
    TITLE "0:"
    INDEX 01 00:11:02
  TRACK 09 AUDIO
    TITLE "4:cjc172_2279"
    INDEX 01 00:11:18
  TRACK 10 AUDIO
    TITLE "0:"
    INDEX 01 00:13:11
  TRACK 11 AUDIO
    TITLE "5:cjc172_2280"
    INDEX 01 00:13:25
  TRACK 12 AUDIO
    TITLE "0:"
    INDEX 01 00:18:73
  TRACK 13 AUDIO
    TITLE "3:cjc172_2281"
    INDEX 01 00:19:53
  TRACK 14 AUDIO
    TITLE "0:"
    INDEX 01 00:20:44
  TRACK 15 AUDIO
    TITLE "4:cjc172_2282"
    INDEX 01 00:20:60
  TRACK 16 AUDIO
    TITLE "0:"
    INDEX 01 00:21:59
  TRACK 17 AUDIO
    TITLE "5:cjc172_2283"
    INDEX 01 00:21:75
  TRACK 18 AUDIO
    TITLE "0:"
    INDEX 01 00:27:40
  TRACK 19 AUDIO
    TITLE "3:cjc172_2284"
    INDEX 01 00:28:20
  TRACK 20 AUDIO
    TITLE "0:"
    INDEX 01 00:29:35
  TRACK 21 AUDIO
    TITLE "4:cjc172_2285"
    INDEX 01 00:29:51
  TRACK 22 AUDIO
    TITLE "0:"
    INDEX 01 00:33:14
  TRACK 23 AUDIO
    TITLE "5:cjc172_2286"
    INDEX 01 00:33:27
  TRACK 24 AUDIO
    TITLE "0:"
    INDEX 01 00:38:30
  TRACK 25 AUDIO
    TITLE "3:cjc172_2287"
    INDEX 01 00:39:10
  TRACK 26 AUDIO
    TITLE "0:"
    INDEX 01 00:40:16
  TRACK 27 AUDIO
    TITLE "4:cjc172_2288"
    INDEX 01 00:40:31
  TRACK 28 AUDIO
    TITLE "0:"
    INDEX 01 00:42:38
  TRACK 29 AUDIO
    TITLE "5:cjc172_2289"
    INDEX 01 00:42:54
  TRACK 30 AUDIO
    TITLE "0:"
    INDEX 01 00:48:35
  TRACK 31 AUDIO
    TITLE "3:cjc172_2290"
    INDEX 01 00:49:11
  TRACK 32 AUDIO
    TITLE "0:"
    INDEX 01 00:50:08
  TRACK 33 AUDIO
    TITLE "4:cjc172_2291"
    INDEX 01 00:50:26
  TRACK 34 AUDIO
    TITLE "0:"
    INDEX 01 00:51:31
  TRACK 35 AUDIO
    TITLE "5:cjc172_2292"
    INDEX 01 00:51:45
  TRACK 36 AUDIO
    TITLE "0:"
    INDEX 01 00:58:10
  TRACK 37 AUDIO
    TITLE "3:cjc172_2293"
    INDEX 01 00:58:63
  TRACK 38 AUDIO
    TITLE "0:"
    INDEX 01 00:59:70
  TRACK 39 AUDIO
    TITLE "4:cjc172_2294"
    INDEX 01 01:00:12
  TRACK 40 AUDIO
    TITLE "0:"
    INDEX 01 01:02:06
  TRACK 41 AUDIO
    TITLE "5:cjc172_2295"
    INDEX 01 01:02:19
  TRACK 42 AUDIO
    TITLE "0:"
    INDEX 01 01:09:06
  TRACK 43 AUDIO
    TITLE "3:cjc172_2296"
    INDEX 01 01:09:62
  TRACK 44 AUDIO
    TITLE "0:"
    INDEX 01 01:10:68
  TRACK 45 AUDIO
    TITLE "4:cjc172_2297"
    INDEX 01 01:11:10
  TRACK 46 AUDIO
    TITLE "0:"
    INDEX 01 01:12:16
  TRACK 47 AUDIO
    TITLE "5:cjc172_2298"
    INDEX 01 01:12:29
  TRACK 48 AUDIO
    TITLE "0:"
    INDEX 01 01:18:30
  TRACK 49 AUDIO
    TITLE "3:cjc172_2299"
    INDEX 01 01:19:06
  TRACK 50 AUDIO
    TITLE "0:"
    INDEX 01 01:20:45
  TRACK 51 AUDIO
    TITLE "4:cjc172_2300"
    INDEX 01 01:20:62
  TRACK 52 AUDIO
    TITLE "0:"
    INDEX 01 01:24:09
  TRACK 53 AUDIO
    TITLE "5:cjc172_2301"
    INDEX 01 01:24:23
  TRACK 54 AUDIO
    TITLE "0:"
    INDEX 01 01:30:37
  TRACK 55 AUDIO
    TITLE "3:cjc172_2302"
    INDEX 01 01:31:15
  TRACK 56 AUDIO
    TITLE "0:"
    INDEX 01 01:32:14
  TRACK 57 AUDIO
    TITLE "4:cjc172_2303"
    INDEX 01 01:32:30
  TRACK 58 AUDIO
    TITLE "0:"
    INDEX 01 01:33:45
  TRACK 59 AUDIO
    TITLE "5:cjc172_2304"
    INDEX 01 01:33:59
  TRACK 60 AUDIO
    TITLE "0:"
    INDEX 01 01:40:10
